<?xml version="1.0" encoding="UTF-8" standalone="no"?>
<!-- Created with Inkscape (http://www.inkscape.org/) -->

<svg
   xmlns:svg="http://www.w3.org/2000/svg"
   xmlns="http://www.w3.org/2000/svg"
   version="1.1"
   width="190"
   height="61.649357"
   id="svg4682">
  <defs
     id="defs4684" />
  <g
     transform="translate(-99.285714,-375.82321)"
     id="layer1">
    <path
       d="m 183.28168,435.34427 c -1.09928,-0.2198 -2.12732,-0.7264 -2.4718,-1.2182 -0.15561,-0.2222 -0.28294,-0.7756 -0.28294,-1.2299 l 0,-0.8259 0.86887,0 c 0.83502,0 0.86886,0.022 0.86886,0.5743 0,0.7341 0.7664,1.1646 2.06606,1.1606 1.27534,0 1.87758,-0.3402 1.95098,-1.0894 0.0728,-0.7433 -0.50356,-1.2502 -1.95231,-1.7173 -2.37798,-0.7667 -3.4163,-1.7319 -3.4163,-3.176 0,-1.6909 1.36656,-2.6947 3.66856,-2.6947 2.21957,0 3.47547,0.9367 3.47547,2.592 0,0.4494 -0.0689,0.4889 -0.85352,0.4889 -0.78501,0 -0.8634,-0.045 -0.97662,-0.5605 -0.15428,-0.7023 -0.97014,-1.0738 -2.04271,-0.9299 -0.94974,0.1274 -1.34036,0.4279 -1.34036,1.0313 0,0.6935 0.56164,1.1228 2.35351,1.7991 0.89538,0.3379 1.86504,0.8046 2.15482,1.037 1.04735,0.8402 1.24144,2.6846 0.38415,3.6507 -0.79266,0.8932 -2.90302,1.418 -4.45472,1.1079 z m 9.27936,0.01 c -1.72911,-0.3539 -2.52271,-1.0852 -2.71244,-2.4998 l -0.10457,-0.7796 0.85437,0 c 0.79633,0 0.8669,0.042 1.03909,0.6247 0.22666,0.7664 0.85692,1.1064 2.05821,1.1102 1.14388,0 1.86848,-0.3204 2.01408,-0.9006 0.19889,-0.7924 -0.35768,-1.3054 -2.15068,-1.9821 -1.93522,-0.7304 -2.89706,-1.4837 -3.20447,-2.5097 -0.31644,-1.0562 0.26424,-2.3163 1.29674,-2.814 0.93556,-0.451 2.80554,-0.5908 3.91296,-0.2926 1.22524,0.3299 1.76073,0.9457 1.76073,2.0248 l 0,0.8776 -0.86886,0 c -0.79268,0 -0.86887,-0.041 -0.86887,-0.4717 0,-0.6308 -0.67625,-1.0729 -1.6412,-1.0729 -1.00976,0 -1.6412,0.4384 -1.6412,1.1395 0,0.7109 0.40727,1.0457 1.99904,1.6436 2.65269,0.9963 3.40795,1.6915 3.40654,3.1357 0,0.4083 -0.16568,1.013 -0.3673,1.3437 -0.68105,1.1168 -2.96195,1.7956 -4.78217,1.4232 z m 11.00903,0 c -2.4534,-0.4917 -4.31419,-2.6961 -4.31419,-5.1108 0,-2.0251 1.49898,-4.1566 3.37187,-4.7947 1.07881,-0.3676 2.99806,-0.4 3.90425,-0.066 1.1589,0.4273 2.26711,1.3823 2.85333,2.4588 1.09286,2.007 0.64524,4.7333 -1.01671,6.1925 -1.29512,1.1372 -3.15639,1.6492 -4.79855,1.3201 z m 3.01939,-2.279 c 1.0394,-0.8297 1.38824,-1.6486 1.30827,-3.071 -0.11056,-1.9665 -1.29892,-3.1397 -3.18025,-3.1397 -2.07706,0 -3.36527,1.299 -3.36527,3.3935 0,1.647 0.87071,2.9123 2.32788,3.3828 0.86116,0.2781 2.17165,0.023 2.90937,-0.5656 l 0,0 z m 9.10673,2.2704 c -2.44314,-0.4802 -4.05447,-2.4652 -4.07459,-5.0195 -0.0164,-2.0805 1.04336,-3.85 2.84086,-4.7436 1.10082,-0.5472 3.915,-0.5027 5.01231,0.079 0.98626,0.523 1.21321,0.9082 1.21321,2.059 l 0,0.8815 -0.86887,0 c -0.82846,0 -0.86887,-0.026 -0.86887,-0.5556 0,-0.6783 -0.26838,-0.9193 -1.26262,-1.1337 -1.65319,-0.3566 -2.96867,0.244 -3.70924,1.6933 -1.05357,2.0619 -0.0359,4.4476 2.14806,5.0357 0.94853,0.2554 2.41093,-0.01 3.30651,-0.6006 0.75607,-0.4983 0.80449,-0.4897 1.16567,0.2088 0.38223,0.7391 0.22446,0.9618 -1.13735,1.6053 -1.14777,0.5423 -2.56262,0.7265 -3.76508,0.4902 z m 15.46035,-0.019 c -2.25565,-0.5032 -3.07798,-3.2764 -1.4375,-4.8477 0.81218,-0.7779 1.91439,-1.145 3.76062,-1.2524 l 1.68947,-0.098 0,-0.6382 c 0,-0.3966 -0.17658,-0.8434 -0.46637,-1.18 -0.41569,-0.4828 -0.58885,-0.5401 -1.59293,-0.5268 -0.93803,0.012 -1.8928,0.287 -2.77855,0.7991 -0.0864,0.05 -0.76153,-1.1606 -0.76153,-1.3656 0,-0.031 0.41221,-0.2616 0.91602,-0.5133 0.67024,-0.3347 1.33072,-0.477 2.46179,-0.5305 2.00852,-0.095 3.0611,0.382 3.71795,1.6846 0.39198,0.7772 0.43443,1.1399 0.43443,3.71 0,2.6186 0.0301,2.8646 0.37348,3.0484 0.2054,0.1099 0.55295,0.1999 0.77233,0.1999 0.32712,0 0.39885,0.1215 0.39885,0.6757 l 0,0.6758 -1.33777,0 c -1.48194,0 -1.94462,-0.2595 -1.94462,-1.0906 l 0,-0.4837 -0.5057,0.601 c -0.89876,1.0681 -2.20158,1.4669 -3.69997,1.1326 l 0,0 z m 2.7969,-1.844 c 0.6254,-0.4098 1.21569,-1.6146 1.21569,-2.4814 l 0,-0.7059 -1.30331,0.1382 c -2.02856,0.2151 -2.7865,0.6271 -3.02733,1.6456 -0.35863,1.5167 1.59725,2.3979 3.11495,1.4035 l 0,0 z m 23.67046,1.8765 c -2.3563,-0.4893 -3.89624,-2.232 -4.06376,-4.5988 -0.12098,-1.7095 0.17248,-2.6878 1.13395,-3.78 1.23764,-1.4061 2.05629,-1.7539 4.12757,-1.7539 1.41183,0 1.88259,0.078 2.51007,0.4161 3.26399,1.7586 3.77199,6.0486 1.00468,8.4845 -1.2509,1.1011 -3.06251,1.5747 -4.71251,1.2321 z m 2.91808,-2.0854 c 1.85183,-1.0815 2.16182,-3.962 0.595,-5.5288 -1.07305,-1.0731 -3.08243,-1.2264 -4.34268,-0.3314 -0.66186,0.47 -1.35157,1.8891 -1.35157,2.7808 0,0.8178 0.41721,1.9601 0.92451,2.5314 0.94964,1.0695 2.85391,1.3194 4.17474,0.548 z m -17.06326,1.8645 c -1.95332,-0.5736 -2.36043,-1.4487 -2.47891,-5.3289 l -0.0899,-2.9445 -0.74648,0 c -0.74219,0 -0.74649,0 -0.74649,-0.7723 l 0,-0.7724 0.86887,0 0.86887,0 0,-1.3515 0,-1.3516 0.9654,0 0.96541,0 0,1.3516 0,1.3515 1.1585,0 1.15849,0 0,0.7724 0,0.7723 -1.15849,0 -1.1585,0 0,2.8145 0,2.8146 0.5644,0.5644 c 0.41675,0.4167 0.74798,0.5644 1.26614,0.5644 l 0.70173,0 -0.0594,0.8206 c -0.0571,0.7899 -0.0846,0.8219 -0.73516,0.8559 -0.37168,0.019 -0.9767,-0.053 -1.3445,-0.161 z m -77.62601,-0.7433 c 0,-0.7445 0.0229,-0.7723 0.6352,-0.7723 0.72174,0 0.27557,1.011 3.43342,-7.7801 l 1.58094,-4.4012 1.16305,0.057 1.16303,0.057 2.14691,5.9855 2.14692,5.9855 0.71967,0.06 c 0.69892,0.058 0.71968,0.082 0.71968,0.8206 l 0,0.7606 -2.41353,0 -2.41352,0 0,-0.7723 c 0,-0.7583 0.0125,-0.7723 0.69645,-0.7723 0.47693,0 0.66779,-0.076 0.60554,-0.2414 -0.05,-0.1327 -0.28816,-0.7844 -0.52924,-1.4481 l -0.43831,-1.2068 -2.44855,0 -2.44853,0 -0.51049,1.4482 -0.51051,1.4481 0.76447,0 c 0.76314,0 0.76445,0 0.76445,0.7723 l 0,0.7723 -2.41353,0 -2.41352,0 0,-0.7723 z m 8.07712,-7.0958 c -0.32289,-0.9292 -0.74408,-2.1673 -0.93595,-2.7514 -0.19866,-0.6047 -0.39122,-0.9372 -0.44723,-0.7723 -0.0541,0.1593 -0.48471,1.3974 -0.95692,2.7514 l -0.85853,2.4618 1.89285,0 1.89286,0 -0.58708,-1.6895 z m 48.68897,7.204 c 0,-0.6281 0.0393,-0.6674 0.72406,-0.724 l 0.72405,-0.06 0.0527,-3.4272 0.0527,-3.4272 -0.87333,0 -0.87333,0 0,-0.7723 0,-0.7723 1.83428,0 1.83427,0 0,4.2478 0,4.2478 0.77233,0 c 0.75395,0 0.77233,0.016 0.77233,0.6757 l 0,0.6758 -2.51007,0 -2.51006,0 0,-0.6641 z m 24.32832,-0.012 c 0,-0.6597 0.0183,-0.6758 0.77233,-0.6758 l 0.77233,0 0,-3.4754 0,-3.4755 -0.77233,0 c -0.77233,0 -0.77233,0 -0.77233,-0.7723 l 0,-0.7724 1.73398,0 1.73397,0 0.052,4.1996 0.052,4.1995 0.8206,0.059 c 0.79499,0.057 0.8206,0.08 0.8206,0.724 l 0,0.6647 -2.60661,0 -2.60661,0 0,-0.6758 z m 18.92203,0 c 0,-0.6603 0.0178,-0.6758 0.77679,-0.6758 l 0.77679,0 -0.0527,-3.4272 -0.0527,-3.4272 -0.77232,-0.096 c -0.73286,-0.092 -0.77538,-0.1335 -0.83224,-0.8206 l -0.0599,-0.7241 1.54537,0 c 1.37805,0 1.57792,0.047 1.84593,0.4292 0.16532,0.236 0.30057,0.6299 0.30057,0.8753 0,0.4263 0.0287,0.4174 0.64617,-0.2 0.92652,-0.9265 1.83231,-1.2976 3.16784,-1.2976 1.34377,0 2.20453,0.4689 2.83689,1.5454 0.34828,0.5929 0.40486,1.069 0.46435,3.9092 l 0.0677,3.2341 0.75286,0 c 0.73169,0 0.75285,0.019 0.75285,0.6758 l 0,0.6758 -1.73774,0 -1.73773,0 -0.005,-3.041 c -0.005,-3.4302 -0.16752,-4.4278 -0.80442,-4.9437 -0.62182,-0.5038 -2.04682,-0.3486 -2.92075,0.3179 -1.06286,0.8107 -1.36165,1.6652 -1.44875,4.1431 l -0.0764,2.1721 0.79318,0 c 0.77775,0 0.79316,0.013 0.79316,0.6758 l 0,0.6758 -2.51007,0 -2.51007,0 0,-0.6758 2e-5,0 z m -41.89878,-12.0676 0,-0.9654 1.06195,0 1.06195,0 0,0.9654 0,0.9654 -1.06195,0 -1.06195,0 0,-0.9654 z m 24.52141,0 0,-0.9654 1.06195,0 1.06195,0 0,0.9654 0,0.9654 -1.06195,0 -1.06195,0 0,-0.9654 z m -66.22711,-3.572 c 0,-0.6597 0.0183,-0.6758 0.77233,-0.6758 l 0.77233,0 0,-5.4063 0,-5.4063 -0.77233,0 c -0.77233,0 -0.77233,0 -0.77233,-0.7723 l 0,-0.7723 1.43433,0 c 1.54078,0 2.04115,0.2464 2.04115,1.0052 0,0.3735 0.0238,0.3681 0.38091,-0.086 0.91395,-1.1619 3.26085,-1.5281 4.79096,-0.7474 1.57669,0.8043 2.3377,2.3444 2.34798,4.7515 0.005,1.2323 -0.0857,1.74 -0.44983,2.5101 -0.81843,1.7312 -2.16369,2.6066 -4.00581,2.6066 -1.06118,0 -2.4656,-0.6414 -2.86205,-1.307 -0.14381,-0.2415 -0.18606,0.2014 -0.15231,1.5966 l 0.0467,1.9309 0.8206,0.059 c 0.79499,0.058 0.8206,0.08 0.8206,0.7241 l 0,0.6647 -2.60661,0 -2.60661,0 0,-0.6758 z m 8.13223,-5.4281 c 1.46028,-1.3991 1.16838,-4.9528 -0.47699,-5.8071 -0.792,-0.4112 -2.08621,-0.4042 -2.72564,0.015 -1.5396,1.0088 -1.87643,4.0278 -0.62362,5.5896 0.91934,1.1462 2.74084,1.2427 3.82625,0.2028 l 0,-10e-5 z m -19.35173,1.992 c -1.8919,-0.7979 -2.86905,-1.691 -3.74813,-3.4258 -1.75662,-3.4665 -0.30127,-8.0321 3.06435,-9.6131 3.65426,-1.7166 7.93447,-0.3097 9.68614,3.1838 0.5102,1.0175 0.56562,1.3146 0.57052,3.0578 0.005,1.7257 -0.0535,2.0585 -0.54951,3.1323 -0.65569,1.4195 -2.19109,2.9672 -3.5479,3.5763 -0.65756,0.2952 -1.4093,0.4307 -2.65503,0.4786 -1.4876,0.057 -1.89357,0 -2.82044,-0.3899 z m 4.78447,-1.8414 c 1.85428,-0.9459 2.87756,-2.9543 2.72404,-5.3465 -0.18389,-2.8654 -2.10019,-4.741 -4.88115,-4.7773 -2.02051,-0.026 -3.76004,1.0843 -4.61294,2.9453 -0.6223,1.3579 -0.56482,3.4463 0.13402,4.8694 0.58424,1.1897 1.58089,2.1125 2.77574,2.57 0.99499,0.381 2.84752,0.2558 3.86029,-0.2609 z m 22.38891,2.0127 c -1.11987,-0.4163 -2.08571,-1.2907 -2.67949,-2.4257 -0.90701,-1.7337 -0.68425,-4.3184 0.50676,-5.8798 1.18967,-1.5598 4.09554,-2.197 5.87618,-1.2885 1.37256,0.7002 2.35401,2.5233 2.35401,4.3727 l 0,0.4732 -3.66855,0 c -4.07531,0 -3.93793,-0.053 -3.37156,1.3024 0.59369,1.4209 1.50695,2.0076 3.12528,2.0076 0.76605,0 1.33644,-0.1377 2.00267,-0.4834 l 0.93156,-0.4833 0.42165,0.6823 c 0.46931,0.7594 0.49468,0.7178 -0.88916,1.4561 -0.99372,0.5301 -3.50878,0.6755 -4.60935,0.2664 z m 3.93356,-6.3024 c 0,-0.5582 -0.49956,-1.4573 -1.00727,-1.8129 -0.82075,-0.5749 -2.72861,-0.282 -3.39527,0.5213 -0.12274,0.1479 -0.35652,0.5881 -0.5195,0.9781 l -0.29634,0.7093 2.60919,0 c 2.50155,0 2.60919,-0.016 2.60919,-0.3958 z m 24.38508,6.1792 c -1.23766,-0.4898 -1.92443,-1.2724 -2.09093,-2.3827 -0.20882,-1.3924 -0.11424,-1.5584 0.9257,-1.6253 l 0.9154,-0.059 0,0.699 c 0,0.9756 0.25361,1.3511 1.15677,1.7124 2.02603,0.8107 4.24952,-0.063 4.24952,-1.6705 0,-1.2757 -0.83384,-1.9566 -3.71671,-3.0352 -2.40323,-0.8992 -3.40985,-2.2553 -3.17099,-4.2721 0.23964,-2.0234 1.80356,-3.152 4.37764,-3.1591 1.64924,0 2.97278,0.4139 3.6756,1.162 0.33988,0.3618 0.47207,0.766 0.53501,1.6363 l 0.0836,1.1559 -0.98861,0 -0.98862,0 0,-0.662 c 0,-0.7425 -0.3769,-1.2209 -1.07545,-1.3651 -0.25805,-0.053 -0.66999,-0.1378 -0.9154,-0.1879 -0.61977,-0.1265 -1.82184,0.2352 -2.26948,0.6829 -0.2479,0.2479 -0.37364,0.6399 -0.37364,1.165 0,1.0611 0.70632,1.7076 2.63345,2.4105 1.95194,0.7119 3.45165,1.7139 3.86337,2.5812 0.40963,0.8629 0.42052,2.6231 0.0209,3.3883 -0.74213,1.4212 -2.01736,2.0771 -4.20078,2.1603 -1.30821,0.05 -1.84513,-0.018 -2.6464,-0.3351 z m 12.68542,0.2262 c -1.54296,-0.5055 -2.81129,-1.7 -3.37639,-3.1796 -0.41381,-1.0836 -0.32986,-3.1728 0.16604,-4.1318 1.64274,-3.1767 6.28647,-3.7865 8.83519,-1.1603 2.28876,2.3585 1.52747,6.5519 -1.47234,8.1104 -0.84001,0.4364 -3.27626,0.6483 -4.1525,0.3613 z m 3.68221,-2.1568 c 0.69708,-0.4964 1.34026,-1.8471 1.33493,-2.8035 -0.0156,-2.785 -2.97995,-4.4233 -5.26187,-2.908 -0.7831,0.5201 -1.49177,1.898 -1.49177,2.9006 0,0.9707 0.64354,2.3156 1.34806,2.8172 1.13366,0.8073 2.93202,0.8045 4.07065,-0.01 l 0,0 z m 7.71744,1.9876 c -1.24881,-0.63 -1.4463,-1.2686 -1.51907,-4.913 l -0.0644,-3.2238 -0.8045,-0.059 c -0.77806,-0.057 -0.80646,-0.082 -0.86441,-0.7827 l -0.0599,-0.724 1.84594,0 1.84592,0 0,3.3501 c 0,1.8425 0.0912,3.6118 0.2027,3.9315 0.33367,0.9572 1.73841,1.3269 2.84794,0.7496 1.40799,-0.7326 1.96949,-2.0627 1.96949,-4.6655 l 0,-1.7989 -0.82059,-0.059 c -0.79653,-0.058 -0.82236,-0.081 -0.88052,-0.7834 l -0.0599,-0.724 1.8421,0 1.8421,0 0.0521,4.1029 0.0521,4.103 0.67579,0.097 c 0.62107,0.089 0.68065,0.1552 0.73572,0.8206 l 0.0599,0.724 -1.44883,0 c -1.27828,0 -1.4842,-0.051 -1.7494,-0.4291 -0.16529,-0.236 -0.30057,-0.6337 -0.30057,-0.8837 0,-0.4444 -0.0108,-0.4417 -0.4872,0.1245 -1.08078,1.2844 -3.44087,1.7856 -4.91251,1.0432 z m 21.27802,-0.2416 c -1.92182,-0.9717 -2.72477,-2.3325 -2.74025,-4.6438 -0.0201,-2.9983 2.17103,-5.0848 5.30552,-5.0524 2.52926,0.026 3.76085,0.8744 3.76085,2.5899 l 0,0.9505 -0.8206,-0.059 c -0.73599,-0.053 -0.82693,-0.1146 -0.88209,-0.5946 -0.0889,-0.7732 -0.84765,-1.1961 -2.1464,-1.1961 -0.78202,0 -1.27015,0.1199 -1.7857,0.4385 -1.369,0.8461 -1.89475,2.9449 -1.14609,4.5752 0.47205,1.028 0.98752,1.4544 2.11044,1.7456 1.15452,0.2995 2.21421,0.127 3.36563,-0.5477 l 0.85669,-0.5021 0.33627,0.7052 c 0.32206,0.6754 0.32135,0.7164 -0.0172,0.9705 -1.01909,0.7648 -1.95056,1.0768 -3.44287,1.1532 -1.43141,0.073 -1.63334,0.034 -2.75412,-0.5325 l -10e-5,0 z m 11.20019,0.2698 c -1.15987,-0.4266 -2.4516,-1.7829 -2.85515,-2.9978 -0.39672,-1.1944 -0.31043,-3.2128 0.18173,-4.2499 0.80498,-1.6964 2.49072,-2.7272 4.44654,-2.719 1.36036,0.01 1.92069,0.1903 2.78492,0.9175 0.85597,0.7203 1.40375,1.8749 1.52527,3.2149 l 0.10193,1.1242 -3.71071,0 -3.71072,0 0.13514,0.6275 c 0.5211,2.4198 2.91281,3.4086 5.33966,2.2076 l 0.95956,-0.4749 0.36946,0.6059 c 0.2032,0.3333 0.36977,0.6573 0.37018,0.72 0,0.063 -0.45436,0.3618 -1.01058,0.6646 -0.83038,0.4519 -1.28801,0.5603 -2.55833,0.606 -1.04813,0.038 -1.81209,-0.042 -2.3689,-0.2466 z m 3.94313,-6.5927 c -0.33401,-2.1012 -3.36773,-2.4753 -4.55074,-0.5611 -0.77052,1.2467 -0.7067,1.2852 2.13052,1.2852 l 2.53532,0 -0.1151,-0.7241 z m -81.02985,5.9373 0,-0.7723 0.77689,0 0.7769,0 -0.0529,-3.3307 -0.0528,-3.3306 -0.77233,-0.097 c -0.73284,-0.092 -0.77538,-0.1335 -0.83224,-0.8206 l -0.0599,-0.724 1.51771,0 c 1.74067,0 1.98107,0.146 1.98107,1.2038 l 0,0.7404 0.60924,-0.6939 c 0.87802,-1 1.9367,-1.482 3.25482,-1.482 1.65415,0 2.60907,0.6086 3.05955,1.9499 0.12711,0.3785 0.22043,1.9113 0.22043,3.6203 l 0,2.964 0.77232,0 c 0.77233,0 0.77233,0 0.77233,0.7723 l 0,0.7723 -1.72625,0 -1.72627,0 -0.0597,-3.7825 c -0.0595,-3.7651 -0.062,-3.7843 -0.54037,-4.1713 -0.62972,-0.5095 -2.19063,-0.4108 -3.03701,0.1918 -0.99632,0.7095 -1.29915,1.6015 -1.37329,4.0452 l -0.0659,2.1722 0.78895,0 0.78893,0 0,0.7723 0,0.7723 -2.51006,0 -2.51007,0 0,-0.7723 z m 55.02835,0 c 0,-0.7539 0.016,-0.7723 0.67579,-0.7723 l 0.67579,0 0,-3.379 0,-3.3789 -0.77233,0 c -0.77233,0 -0.77233,0 -0.77233,-0.7723 l 0,-0.7723 1.43433,0 c 1.71225,0 2.0403,0.2269 2.04298,1.4136 l 0.002,0.8068 0.48182,-0.8038 c 0.51941,-0.8664 1.74996,-1.6097 2.66487,-1.6097 0.49323,0 0.51829,0.047 0.51829,0.9654 l 0,0.9654 -0.64723,0 c -0.90736,0 -1.88181,0.7133 -2.40008,1.7568 -0.33257,0.6696 -0.47002,1.3685 -0.56015,2.8477 l -0.11942,1.9603 0.8015,0 0.80148,0 0,0.7723 0,0.7723 -2.41352,0 -2.41352,0 0,-0.7723 -2e-4,0 z m -92.78384,-18.8988 c -1.39834,-0.6352 -2.2088,-2.0059 -2.21139,-3.74 l -0.002,-0.7241 0.96541,0 c 0.94624,0 0.96541,0.012 0.96541,0.5854 0,0.9152 0.49138,1.8693 1.1337,2.2015 0.77301,0.3997 1.34238,0.3805 2.08133,-0.07 0.86518,-0.5276 1.03277,-1.5654 1.03277,-6.395 l 0,-4.0452 -1.06195,0 -1.06195,0 0,-0.7723 0,-0.7723 2.79969,0 2.79969,0 0,0.7723 c 0,0.7723 0,0.7723 -0.77233,0.7723 l -0.77233,0 0,4.5633 c 0,3.0446 -0.0788,4.8263 -0.23671,5.3534 -0.63777,2.1287 -3.47083,3.2652 -5.66028,2.2707 l 0,0 z m 12.62731,0.095 c -1.18259,-0.4225 -1.96531,-0.9673 -2.61678,-1.8214 -1.92853,-2.5285 -1.07734,-6.2855 1.73111,-7.6411 2.04344,-0.9863 4.22459,-0.7985 5.96878,0.5141 2.47881,1.8653 2.55154,5.8677 0.14408,7.9284 -1.36675,1.1699 -3.59216,1.6041 -5.22719,1.02 z m 3.41923,-1.9495 c 0.97489,-0.5713 1.62843,-1.7617 1.62843,-2.9661 0,-2.8575 -3.13107,-4.5039 -5.34872,-2.8124 -1.24769,0.9516 -1.71001,2.6546 -1.11029,4.0899 0.84359,2.019 2.98778,2.7686 4.83058,1.6886 z m 15.97563,1.7283 c -1.63474,-0.8146 -2.38153,-2.2984 -2.36764,-4.7043 0.0133,-2.3141 0.79297,-3.8803 2.31908,-4.6588 1.63724,-0.8353 3.27774,-0.6793 4.54342,0.432 l 0.65922,0.5788 0,-1.8543 0,-1.8543 -0.86887,0 -0.86887,0 0,-0.7723 0,-0.7723 1.83428,0 1.83428,0 0,6.1786 0,6.1786 0.67578,0 c 0.65971,0 0.67579,0.018 0.67579,0.7723 l 0,0.7724 -1.25503,0 c -1.32569,0 -2.02736,-0.3801 -2.02736,-1.0981 0,-0.2613 -0.10508,-0.2251 -0.53098,0.1828 -1.23748,1.1853 -3.01024,1.4227 -4.6231,0.6189 z m 3.74487,-1.6266 c 0.92996,-0.5671 1.30176,-1.4207 1.30683,-3.0006 0.003,-1.0797 -0.0893,-1.5153 -0.46096,-2.1652 -0.74597,-1.3044 -2.07366,-1.7312 -3.41089,-1.0967 -2.02209,0.9596 -2.17877,5.0658 -0.23844,6.2488 0.81365,0.496 2.00282,0.5018 2.80346,0.014 l 0,0 z m 7.58489,1.6816 c -1.04019,-0.5272 -1.57389,-1.3865 -1.57389,-2.5339 0,-1.3168 0.43278,-1.9402 1.81644,-2.6166 0.94599,-0.4625 1.57551,-0.6183 2.89797,-0.7173 0.92921,-0.069 1.68898,-0.1788 1.6884,-0.2428 -0.005,-0.5404 -0.48009,-1.609 -0.82171,-1.8483 -0.59064,-0.4137 -2.18793,-0.3663 -3.20476,0.095 -0.46291,0.21 -0.90298,0.3819 -0.97792,0.3819 -0.0749,0 -0.28339,-0.3086 -0.46322,-0.6857 l -0.32701,-0.6858 1.11185,-0.5129 c 0.88159,-0.4068 1.4117,-0.5147 2.55993,-0.5211 1.84959,-0.01 2.7894,0.436 3.47361,1.6493 0.4449,0.789 0.48608,1.0799 0.55121,3.8938 l 0.0704,3.041 0.65555,0 c 0.63609,0 0.65555,0.023 0.65555,0.7723 l 0,0.7724 -1.25503,0 c -1.37403,0 -2.02736,-0.3818 -2.02736,-1.1846 0,-0.3838 -0.0289,-0.3754 -0.41926,0.1208 -0.95197,1.2103 -2.92116,1.5774 -4.41073,0.8224 z m 3.28562,-1.4307 c 0.64242,-0.3795 1.26542,-1.4219 1.45285,-2.4309 l 0.1345,-0.7241 -1.13172,0.01 c -2.06516,0.016 -3.35215,0.7313 -3.35215,1.8645 0,1.3615 1.57891,2.0603 2.89652,1.282 l 0,0 z m -25.29402,0.8997 0,-0.7724 0.77679,0 0.77678,0 -0.0527,-3.4272 -0.0527,-3.4272 -0.83154,-0.06 c -0.83134,-0.06 -0.83155,-0.06 -0.77233,-0.7723 l 0.0592,-0.7124 1.51969,0.011 c 1.72671,0.012 2.05232,0.2351 2.05232,1.4064 l 0,0.6675 0.43444,-0.6384 c 0.63433,-0.932 1.33603,-1.3789 2.3432,-1.4924 l 0.89092,-0.1005 0,0.9906 0,0.9905 -0.72406,0 c -1.02741,0 -1.85051,0.578 -2.38201,1.6698 -0.36439,0.7486 -0.47074,1.3324 -0.53096,2.9152 l -0.0753,1.9791 0.79422,0 0.79423,0 0,0.7723 0,0.7723 -2.51007,0 -2.51006,0 0,-0.7723 0,0 z m 31.47235,0 0,-0.7724 0.77679,0 0.77679,0 -0.0527,-3.4272 -0.0527,-3.4272 -0.72406,-0.06 c -0.7083,-0.059 -0.72406,-0.077 -0.72406,-0.846 l 0,-0.7861 1.47924,0.095 c 1.64458,0.1055 1.99153,0.3468 2.00236,1.3926 l 0.006,0.5906 0.39781,-0.5333 c 0.21878,-0.2932 0.80252,-0.7711 1.29718,-1.0619 1.18645,-0.6975 3.17033,-0.7578 4.0228,-0.1224 1.16019,0.8648 1.31126,1.4061 1.382,4.9517 l 0.0645,3.2341 0.75605,0 c 0.75335,0 0.75605,0 0.75605,0.7724 l 0,0.7723 -1.73773,0 -1.73774,0 0,-3.3851 c 0,-3.9467 -0.16072,-4.6034 -1.19311,-4.8748 -1.34515,-0.3536 -2.63891,0.2887 -3.42798,1.7019 -0.39437,0.7063 -0.48363,1.1764 -0.55577,2.9274 l -0.086,2.0859 0.79714,0 0.79712,0 0,0.7724 0,0.7723 -2.51006,0 -2.51007,0 0,-0.7723 -6e-5,0 z"
       id="path3847"
       style="fill:#1d2122;fill-opacity:1" />
    <path
       d="m 130.22106,375.82507 c -0.0702,0.082 -1.19726,2.6272 -2.50404,5.6537 -1.30679,3.0266 -2.87781,6.6685 -3.49357,8.0914 -0.61576,1.4228 -1.19616,2.6624 -1.29124,2.7574 -0.10173,0.1018 -3.54321,-0.6656 -8.36286,-1.8644 -4.50334,-1.1202 -8.51126,-2.1149 -8.9059,-2.2084 l -0.71803,-0.1689 0.30773,0.6033 c 0.16943,0.333 1.54619,2.912 3.05914,5.7261 1.51295,2.8142 3.3316,6.196 4.03662,7.5182 l 1.27917,2.4075 -0.53098,0.4404 c -0.29364,0.2434 -3.10017,2.429 -6.23292,4.8572 -3.13276,2.4283 -6.11887,4.798 -6.6372,5.2675 l -0.941266,0.8569 7.312976,1.3093 c 4.02276,0.7197 8.07802,1.443 9.01451,1.611 l 1.70154,0.3077 -0.10861,7.838 c -0.0626,4.3126 -0.16188,8.4738 -0.21722,9.2438 -0.0554,0.7699 -0.0481,1.3998 0.0121,1.3998 0.0602,0 2.42942,-2.0233 5.26751,-4.4952 2.83808,-2.4719 5.96186,-5.1755 6.94492,-6.0097 l 1.79204,-1.5205 3.42117,2.7695 c 2.94552,2.3779 9.43532,7.6993 10.5471,8.6525 0.35075,0.3008 0.35968,0.238 0.24135,-2.3894 -0.067,-1.4867 -0.2093,-4.7884 -0.31375,-7.3371 -0.10446,-2.5487 -0.24252,-5.3963 -0.30773,-6.3295 l -0.12067,-1.7015 -1.66534,1.605 c -0.91762,0.8812 -2.16887,1.9289 -2.77555,2.3291 -1.17652,0.776 -2.98686,1.6743 -3.37893,1.6773 -0.1306,0 -0.41176,-0.331 -0.62148,-0.7421 -0.84976,-1.6656 -3.68063,-9.57 -3.68063,-10.2756 0,-0.2149 0.30139,-0.556 0.73009,-0.8266 0.90882,-0.5737 1.93604,-1.7248 2.28682,-2.5644 0.3544,-0.8482 0.33767,-2.9994 -0.0302,-3.8797 -0.77635,-1.858 -2.42595,-2.9867 -4.36245,-2.9867 -1.95976,0 -3.47808,0.9166 -4.36848,2.6247 -0.68237,1.3089 -0.73257,3.2894 -0.10861,4.471 0.40287,0.7629 1.61994,2.0042 2.55834,2.6126 0.45766,0.2968 0.46183,0.3271 0.20515,1.2551 -0.77484,2.8011 -3.63255,10.12 -4.00645,10.2635 -0.41924,0.1609 -3.33704,-1.3757 -4.83308,-2.5463 -5.27579,-4.128 -7.83701,-11.88 -6.02778,-18.2523 1.84115,-6.4846 6.99818,-11.3869 13.22611,-12.5684 2.08413,-0.3954 5.48396,-0.3114 7.40952,0.181 1.76746,0.452 4.23851,1.6089 5.4968,2.5704 3.27435,2.5022 5.32106,5.3557 6.61909,9.2378 0.51841,1.5504 0.54445,1.828 0.54908,5.0201 0.006,3.9762 -0.17503,4.8549 -1.6412,7.8923 -0.53257,1.1032 -0.9226,2.052 -0.86886,2.1058 0.0538,0.054 4.00134,-0.7114 8.77919,-1.7016 l 8.68869,-1.8041 -2.76952,-2.0394 c -1.52504,-1.1226 -4.86741,-3.56 -7.42159,-5.4184 -2.55418,-1.8584 -4.6441,-3.4658 -4.64603,-3.572 -0.002,-0.1062 1.81159,-3.8009 4.03058,-8.206 2.219,-4.405 4.01034,-8.0331 3.97628,-8.0672 -0.034,-0.034 -3.09157,0.7612 -6.79407,1.7679 -9.02372,2.4536 -10.7222,2.8742 -10.89706,2.6911 -0.24127,-0.2527 -2.06104,-4.0111 -5.0141,-10.348 -1.52258,-3.2673 -2.82598,-5.8739 -2.89622,-5.7925 z"
       id="path3847-1"
       style="fill:#2cafce;fill-opacity:1" />
  </g>
</svg>
