<?xml version="1.0" encoding="UTF-8" standalone="no"?>
<!-- Created with Inkscape (http://www.inkscape.org/) -->

<svg
   xmlns:svg="http://www.w3.org/2000/svg"
   xmlns="http://www.w3.org/2000/svg"
   version="1.1"
   width="26.559107"
   height="30.000271"
   id="svg4801">
  <defs
     id="defs4803" />
  <g
     transform="translate(-306.72045,-331.64776)"
     id="layer1">
    <path
       d="m 330.67007,331.64907 c -0.0941,0.0246 -0.76483,0.41331 -1.6329,0.94969 -0.49418,0.30535 -0.51291,0.32211 -0.4791,0.41106 0.0714,0.18783 0.0401,0.37383 -0.0822,0.51311 -0.10468,0.11922 -0.13099,0.13041 -0.31183,0.13041 -0.16674,0 -0.2193,-0.0194 -0.32319,-0.11056 l -0.1219,-0.10773 -0.77676,0.50178 c -1.43593,0.92746 -3.09165,2.01967 -3.0787,2.03262 0.007,0.007 0.067,-0.002 0.1304,-0.0198 0.14171,-0.0406 0.35864,0.005 0.45927,0.0964 0.3555,0.32172 0.14534,0.93835 -0.32035,0.93835 -0.32635,0 -0.53845,-0.21271 -0.53863,-0.5443 -1.2e-4,-0.16501 0.019,-0.2141 0.1219,-0.33169 l 0.11906,-0.13607 -0.20411,0.12757 c -0.11197,0.0714 -0.37341,0.2444 -0.58115,0.38271 l -0.37704,0.25231 0.0907,0.13324 c 0.11684,0.17194 0.12483,0.44355 0.017,0.618 -0.0802,0.1297 -0.29873,0.23813 -0.47627,0.23813 -0.13267,0 -0.33487,-0.13391 -0.4309,-0.28632 -0.0407,-0.0646 -0.0828,-0.11825 -0.0935,-0.11907 -0.0107,-7.8e-4 -0.17287,0.0973 -0.36004,0.21829 l -0.34018,0.22112 0.0539,0.13041 c 0.11306,0.27059 0.0304,0.53789 -0.21261,0.68604 -0.22298,0.13596 -0.50175,0.0705 -0.70873,-0.17009 l -0.0822,-0.0964 -0.39121,0.20695 -0.39121,0.20978 0.10489,0.11339 c 0.34748,0.372 0.12881,0.92134 -0.36571,0.92134 -0.27377,0 -0.52437,-0.2633 -0.52446,-0.54996 -3e-5,-0.0901 -0.0142,-0.11903 -0.051,-0.1049 -0.41103,0.15773 -0.61311,0.19407 -1.11696,0.19278 -0.40997,-0.001 -0.594,-0.0195 -0.88448,-0.0879 -0.69897,-0.1645 -1.31351,-0.40974 -2.10066,-0.83913 -0.41113,-0.22427 -0.45105,-0.24072 -0.51028,-0.18711 -0.0978,0.0885 -0.34864,0.0745 -0.46492,-0.0255 -0.0745,-0.0641 -0.0976,-0.11683 -0.0992,-0.23529 -9.3e-4,-0.0846 0.009,-0.17296 0.0227,-0.19561 0.043,-0.0697 -0.80608,-0.94202 -1.0319,-1.06025 -0.1895,-0.0992 -0.1998,-0.10293 -0.29199,-0.0425 -0.1265,0.0829 -0.21591,0.0791 -0.33452,-0.0142 l -0.0964,-0.0765 -0.12473,0.0765 c -0.0674,0.0416 -0.14911,0.10856 -0.18427,0.14741 -0.0613,0.0678 -0.0606,0.0732 0.0652,0.14741 0.0853,0.0503 0.13323,0.10662 0.13608,0.16159 0.013,0.25095 -0.0745,0.33921 -0.30617,0.31184 l -0.17292,-0.0198 -0.0397,0.22963 c -0.13722,0.76294 -0.45197,3.28929 -0.49328,3.96602 l -0.0113,0.18427 0.15592,-0.0113 c 0.19089,-0.0132 0.28886,0.0385 0.3657,0.1871 0.13129,0.2539 -0.0382,0.51028 -0.33735,0.51028 -0.0877,0 -0.17169,-0.0165 -0.18427,-0.0369 -0.0552,-0.0893 -0.0859,-0.0163 -0.11056,0.24664 -0.0211,0.2247 -0.014,0.30749 0.034,0.40822 0.0831,0.17431 0.0768,0.23095 -0.0482,0.42807 -0.089,0.14038 -0.12126,0.25102 -0.1701,0.6095 -0.40075,2.9414 -0.76752,4.90307 -1.09143,5.83989 -0.0986,0.28502 -0.2546,0.72638 -0.34586,0.98086 -0.0913,0.2545 -0.26032,0.80866 -0.37703,1.23036 l -0.21263,0.76825 0.0964,0.1134 c 0.17558,0.20867 0.0886,0.5177 -0.1616,0.57264 -0.0909,0.02 -0.11712,0.0508 -0.15025,0.1786 -0.022,0.085 -0.0548,0.21223 -0.0737,0.28349 -0.0486,0.18283 -0.0457,0.18721 0.0765,0.14459 0.22378,-0.078 0.48193,0.0937 0.48193,0.32034 0,0.33533 -0.37564,0.49817 -0.62084,0.26931 -0.0649,-0.0606 -0.0843,-0.0664 -0.0992,-0.0255 -0.062,0.16943 -0.63649,2.90258 -0.79944,3.80443 -0.12931,0.71563 -0.13467,0.82121 -0.0397,0.90717 0.0389,0.0352 0.0811,0.10634 0.0935,0.15592 0.0283,0.11266 -0.0646,0.29715 -0.16442,0.32884 -0.24683,0.0783 0.19724,0.38228 0.94402,0.64636 0.29641,0.10482 1.39307,0.40777 1.47698,0.40822 0.0179,1e-4 0.0235,-0.0613 0.0113,-0.13607 -0.0335,-0.20675 0.0592,-0.37077 0.24096,-0.42523 0.12591,-0.0377 0.16471,-0.0337 0.26932,0.0227 0.21969,0.11831 0.26611,0.35039 0.10773,0.53862 -0.0534,0.0635 -0.0927,0.11897 -0.0851,0.12473 0.008,0.006 0.56858,0.12478 1.24453,0.26366 l 1.22751,0.2523 0.13324,-0.11623 c 0.10651,-0.0935 0.16448,-0.11623 0.29766,-0.11623 0.1371,0 0.19223,0.0203 0.30617,0.12474 0.0758,0.0695 0.15233,0.11643 0.17293,0.10488 0.0829,-0.0465 0.39427,-0.30278 0.80795,-0.66903 l 0.43657,-0.38555 -0.19561,-0.0794 c -0.23579,-0.0943 -0.36287,-0.26022 -0.36287,-0.47343 0,-0.45764 0.51127,-0.71096 0.86465,-0.42807 0.0624,0.05 0.129,0.16332 0.16725,0.28065 l 0.0624,0.19561 0.85614,-0.8618 c 0.47053,-0.47407 1.00822,-1.03926 1.19632,-1.25303 0.18812,-0.21377 0.43563,-0.48556 0.54998,-0.60383 0.22822,-0.23613 0.22811,-0.20316 0,-0.36854 -0.0328,-0.0238 -0.10222,-0.10791 -0.15592,-0.1871 -0.13379,-0.19728 -0.14118,-0.57979 -0.0141,-0.76825 0.39261,-0.58261 1.29554,-0.29928 1.29554,0.40538 0,0.1833 0.007,0.19469 0.0794,0.17577 0.0662,-0.0174 0.47369,-0.11488 1.0319,-0.24947 0.0766,-0.0185 0.19498,-0.0843 0.26364,-0.14458 0.25586,-0.22465 0.53373,-0.27185 0.9015,-0.15592 0.18705,0.0589 0.2155,0.059 0.42807,0.003 0.12549,-0.0331 0.27484,-0.0802 0.33169,-0.10205 l 0.10488,-0.0397 -0.0255,-0.26931 c -0.022,-0.24297 -0.0155,-0.28887 0.068,-0.45359 0.0511,-0.10083 0.12585,-0.21178 0.16442,-0.24663 0.0969,-0.0876 0.37001,-0.20294 0.55281,-0.23246 0.13799,-0.0223 0.1682,-0.0499 0.33168,-0.28916 0.33773,-0.49429 0.63348,-0.82373 1.38909,-1.55353 l 0.75409,-0.72857 -0.14741,-0.14741 c -0.12673,-0.12616 -0.18424,-0.1519 -0.38839,-0.18427 -0.31017,-0.0492 -0.5392,-0.19231 -0.6832,-0.42523 -0.0972,-0.15728 -0.11377,-0.21967 -0.11907,-0.47343 -0.006,-0.27971 -0.0109,-0.29947 -0.14742,-0.46492 -0.0783,-0.0948 -0.16009,-0.19556 -0.18143,-0.22396 -0.032,-0.0426 -0.0741,-0.0282 -0.23813,0.0737 -0.18341,0.11397 -0.22253,0.12359 -0.49893,0.1219 -0.20426,-9.3e-4 -0.33246,-0.0211 -0.40824,-0.0624 -0.51302,-0.27971 -0.61697,-0.90069 -0.22112,-1.3239 l 0.16159,-0.17292 -0.61233,-0.73707 c -1.30156,-1.56555 -2.16019,-2.81032 -2.16019,-3.12973 0,-0.0959 0.0265,-0.12013 0.25514,-0.23529 l 0.25797,-0.13041 -0.0397,-0.13607 c -0.0931,-0.337 0.0663,-0.68429 0.38838,-0.8448 0.38734,-0.19302 0.74171,-0.0606 0.95536,0.35719 l 0.068,0.13608 1.32391,-0.44224 c 0.72816,-0.24342 1.8409,-0.60911 2.47202,-0.81362 0.98853,-0.32033 1.16693,-0.39039 1.27853,-0.49611 0.20477,-0.19396 0.34978,-0.24932 0.63503,-0.24663 0.13898,10e-4 0.26774,0.0112 0.28632,0.0227 0.0619,0.0382 3.42987,-1.13977 4.18998,-1.46564 l 0.17292,-0.0737 0.0255,-0.22679 c 0.0337,-0.29834 0.0988,-0.41564 0.30617,-0.54714 0.22815,-0.14469 0.48708,-0.14947 0.75408,-0.0142 0.21359,0.10823 0.21998,0.1053 0.41673,-0.16442 0.14463,-0.19828 0.18824,-0.35891 0.13608,-0.49611 -0.0468,-0.12303 -0.181,-0.19414 -0.48477,-0.25231 -0.29208,-0.0559 -0.42259,-0.11727 -0.50177,-0.23813 -0.0522,-0.0797 -0.0882,-0.0935 -0.26932,-0.0935 -0.26937,-7e-5 -0.4433,-0.0852 -0.54997,-0.27498 -0.0978,-0.17398 -0.11251,-0.45224 -0.0312,-0.60951 0.079,-0.15278 0.26178,-0.29188 0.41956,-0.32034 0.0757,-0.0137 0.14931,-0.03 0.16159,-0.0369 0.0384,-0.0215 -0.13332,-1.05195 -0.19561,-1.17365 -0.0211,-0.0413 -0.0772,-0.0623 -0.15309,-0.0624 -0.24752,-2.8e-4 -0.50707,-0.2614 -0.50743,-0.51028 -2.2e-4,-0.18997 0.12948,-0.40608 0.29482,-0.49043 l 0.14458,-0.0737 -0.17576,-0.6747 c -0.16934,-0.6542 -0.18154,-0.68265 -0.33168,-0.83062 -0.17023,-0.16776 -0.18871,-0.25411 -0.1134,-0.53863 0.0377,-0.14226 0.0269,-0.21846 -0.11339,-0.75125 -0.0856,-0.32517 -0.16399,-0.60069 -0.17294,-0.61517 -9.3e-4,-0.002 -0.002,-0.002 -0.009,0 z m -0.91851,1.07726 c 0.4497,0 0.62207,0.58126 0.24097,0.81361 -0.14114,0.0861 -0.26256,0.0923 -0.4224,0.0227 -0.1574,-0.0686 -0.23813,-0.2074 -0.23813,-0.41106 0,-0.14577 0.0206,-0.19073 0.12757,-0.29766 0.10603,-0.10603 0.15093,-0.12757 0.29199,-0.12757 z m 0,2.2509 c 0.13824,-0.007 0.26835,0.0501 0.38554,0.16726 0.22117,0.22116 0.20433,0.53199 -0.0425,0.76259 -0.0707,0.0661 -0.14538,0.0932 -0.28916,0.10205 -0.23384,0.0144 -0.31963,-0.0177 -0.44791,-0.17009 -0.24804,-0.29477 -0.12152,-0.70397 0.25514,-0.83346 0.0473,-0.0163 0.0928,-0.0261 0.13891,-0.0283 z m -1.90221,0.10489 c 0.27926,-0.01 0.52133,0.21887 0.52162,0.5443 1.2e-4,0.15384 -0.0185,0.19708 -0.13891,0.32602 -0.16591,0.17756 -0.34297,0.22983 -0.54147,0.16159 -0.24831,-0.0854 -0.36823,-0.25952 -0.36286,-0.52729 0.004,-0.20774 0.11856,-0.3675 0.32601,-0.45926 0.0661,-0.0292 0.13116,-0.0432 0.19561,-0.0454 z m -1.9164,0.32035 c 0.18069,-0.009 0.36431,0.0772 0.47627,0.26081 0.13272,0.21766 0.0613,0.5432 -0.15308,0.70022 -0.21376,0.15654 -0.5216,0.10615 -0.70873,-0.11623 -0.14326,-0.17026 -0.16272,-0.33433 -0.0652,-0.5358 0.094,-0.19421 0.27007,-0.29972 0.45074,-0.309 z m 3.82428,1.84268 c 0.1045,7.9e-4 0.21059,0.0192 0.28916,0.0567 0.43032,0.2052 0.41646,0.87318 -0.0227,1.08576 -0.26219,0.12693 -0.46678,0.0901 -0.6832,-0.11906 -0.28972,-0.28001 -0.21757,-0.7852 0.13891,-0.96954 0.0703,-0.0363 0.17331,-0.0546 0.27781,-0.0539 z m -2.22256,0.14741 c 0.15809,-0.002 0.31778,0.0655 0.45358,0.20128 0.15409,0.15408 0.15876,0.1636 0.15876,0.39689 0,0.28028 -0.0854,0.4415 -0.29483,0.5528 -0.39884,0.21195 -0.89016,-0.0799 -0.89016,-0.53012 0,-0.21256 0.0667,-0.35527 0.22396,-0.48761 0.10486,-0.0882 0.22574,-0.13129 0.34869,-0.13324 z m -2.12617,0.49894 c 0.24547,0 0.36604,0.0662 0.51311,0.28066 0.0732,0.10682 0.0829,0.16163 0.0709,0.3572 -0.0156,0.2544 -0.0897,0.39059 -0.27215,0.4961 -0.25999,0.15036 -0.54262,0.0959 -0.77393,-0.15025 -0.0919,-0.0978 -0.10996,-0.15191 -0.1219,-0.34585 -0.012,-0.1953 -0.003,-0.25041 0.0709,-0.3572 0.14709,-0.21443 0.26765,-0.28066 0.51312,-0.28066 z m -12.57275,0.62085 c 0.2831,-0.008 0.48754,0.35387 0.27497,0.60099 -0.0561,0.0652 -0.13348,0.1022 -0.23812,0.11624 -0.13782,0.0185 -0.16929,0.009 -0.26931,-0.0907 -0.19493,-0.19491 -0.14042,-0.49538 0.10772,-0.59816 0.0427,-0.0177 0.0843,-0.0272 0.12474,-0.0284 z m 10.52029,0.19277 c 0.28226,0 0.45926,0.11617 0.55564,0.36854 0.11419,0.29898 0.0287,0.56771 -0.24097,0.75124 -0.11936,0.0812 -0.37809,0.10957 -0.51878,0.0567 -0.22241,-0.0836 -0.40823,-0.34853 -0.40823,-0.58398 0,-0.17605 0.11698,-0.39799 0.26649,-0.50462 0.095,-0.0678 0.16941,-0.0879 0.34585,-0.0879 z m -7.86116,0.28349 c 0.21112,0.0123 0.39972,0.18033 0.39972,0.43941 0,0.15949 -0.0924,0.32184 -0.22112,0.38838 -0.45153,0.23349 -0.88659,-0.29863 -0.54714,-0.66904 0.10674,-0.11647 0.24186,-0.16614 0.36854,-0.15875 z m 14.27086,0.50177 c 0.0823,-0.003 0.1622,0.008 0.23812,0.0312 0.25696,0.0782 0.47465,0.37736 0.47628,0.65769 0.002,0.27913 -0.26056,0.61008 -0.54431,0.68888 -0.15482,0.043 -0.16731,0.044 -0.32601,0.006 -0.47444,-0.11449 -0.70733,-0.66055 -0.45643,-1.06875 0.11293,-0.18372 0.36558,-0.30471 0.61235,-0.31468 z m -17.68975,0.0595 c 0.14207,0.008 0.29682,0.11051 0.32601,0.22679 0.0368,0.14638 -0.0171,0.34965 -0.10772,0.40822 -0.21711,0.14039 -0.47243,0.0749 -0.56414,-0.14458 -0.0467,-0.11166 -0.0486,-0.14957 -0.006,-0.2523 0.0643,-0.15395 0.13518,-0.21227 0.28915,-0.2353 0.0194,-0.003 0.0421,-0.004 0.0624,-0.003 z m 15.0788,0.21261 c 0.12624,-0.007 0.25429,0.0155 0.36287,0.0709 0.22677,0.11569 0.33857,0.29104 0.36003,0.56415 0.017,0.21597 0.011,0.24543 -0.10488,0.41673 -0.0683,0.101 -0.17422,0.21183 -0.2353,0.24663 -0.45402,0.2587 -1.06025,-0.0739 -1.06025,-0.58115 0,-0.20699 0.03,-0.30351 0.14458,-0.45642 0.11662,-0.15557 0.32258,-0.24879 0.53295,-0.26081 z m -5.72648,0.034 c 0.20113,-0.011 0.40344,0.0762 0.52162,0.27782 0.16366,0.27927 0.10004,0.66817 -0.13608,0.8363 -0.13665,0.0973 -0.45643,0.12927 -0.6095,0.0595 -0.23582,-0.10745 -0.41726,-0.44954 -0.36286,-0.68038 0.0713,-0.30268 0.32822,-0.4791 0.58682,-0.49327 z m -3.72222,0.18711 c 0.12649,0 0.18037,0.0244 0.30618,0.14174 0.13567,0.12656 0.15402,0.16181 0.16725,0.34019 0.0163,0.22049 -0.0588,0.39036 -0.21828,0.49043 -0.098,0.0615 -0.31168,0.0998 -0.41957,0.0737 -0.11914,-0.0288 -0.31583,-0.19418 -0.3572,-0.3005 -0.14606,-0.3754 0.11297,-0.74558 0.52162,-0.74558 z m -3.2658,0.23246 c 0.10448,0.004 0.2044,0.0477 0.28633,0.13324 0.18659,0.19476 0.15815,0.53357 -0.0595,0.68604 -0.0467,0.0327 -0.16101,0.0567 -0.26082,0.0567 -0.2526,0 -0.40074,-0.13633 -0.42523,-0.39121 -0.0154,-0.15981 -0.005,-0.19993 0.0794,-0.3005 0.10566,-0.12558 0.24556,-0.18904 0.37987,-0.18427 z m 10.29351,0.33168 c 0.0512,-5e-5 0.1004,0.006 0.14457,0.0198 0.35023,0.10669 0.53013,0.34516 0.53013,0.70022 0,0.15071 -0.0225,0.22042 -0.11906,0.36287 -0.0662,0.0976 -0.17822,0.20616 -0.24947,0.24096 -0.23994,0.11717 -0.44632,0.11362 -0.68605,-0.0113 -0.42711,-0.22262 -0.47196,-0.85369 -0.0822,-1.15096 0.13429,-0.10243 0.30843,-0.16144 0.46209,-0.16159 z m -13.36654,0.068 c 0.11523,0.006 0.22713,0.0705 0.28917,0.20128 0.0315,0.0664 0.0567,0.1382 0.0567,0.16159 0,0.10425 -0.12547,0.27208 -0.24096,0.32034 -0.0693,0.0289 -0.14001,0.0523 -0.15594,0.051 -0.15078,-0.0122 -0.34301,-0.21185 -0.34301,-0.35436 0,-0.2452 0.20202,-0.39047 0.39404,-0.37988 z m 8.30625,0.56131 c 0.10055,-0.006 0.2057,0.0124 0.309,0.0624 0.22972,0.1112 0.33452,0.28934 0.33452,0.56415 0,0.22668 -0.0616,0.34732 -0.24946,0.4876 -0.11369,0.0849 -0.44013,0.11601 -0.58116,0.0567 -0.22179,-0.0933 -0.37137,-0.31385 -0.37137,-0.55281 0,-0.34874 0.25682,-0.59893 0.55847,-0.61801 z m -3.2658,0.22963 c 0.11443,0.003 0.22097,0.0492 0.32318,0.13891 0.29096,0.25546 0.23258,0.69487 -0.11906,0.87598 -0.0934,0.0481 -0.33001,0.0511 -0.44225,0.006 -0.1013,-0.041 -0.26864,-0.24157 -0.29766,-0.3572 -0.0625,-0.249 0.0815,-0.52696 0.32318,-0.62367 0.0734,-0.0294 0.14396,-0.0415 0.21261,-0.0397 z m -2.94262,0.11906 c 0.0486,-0.003 0.10067,-3e-4 0.15309,0.0142 0.3553,0.0981 0.41135,0.61356 0.0879,0.81078 -0.20476,0.12484 -0.39536,0.0867 -0.56131,-0.11056 -0.24141,-0.28689 -0.02,-0.69415 0.32035,-0.71439 z m 9.0178,0.34302 c 0.28861,0 0.41947,0.07 0.55848,0.28916 0.22742,0.3586 0.10219,0.83499 -0.26932,1.02907 -0.13321,0.0696 -0.49834,0.065 -0.63785,-0.008 -0.3813,-0.20101 -0.48773,-0.60782 -0.26081,-0.99505 0.12312,-0.21011 0.32469,-0.31467 0.6095,-0.31467 z m -4.28352,0.92135 c 0.11603,-0.004 0.22951,0.0257 0.32601,0.0907 0.38495,0.25941 0.40116,0.76075 0.0312,1.03473 -0.11646,0.0862 -0.37866,0.11594 -0.53296,0.0595 -0.37857,-0.13838 -0.52579,-0.56672 -0.31468,-0.91283 0.1022,-0.16754 0.29705,-0.26479 0.49044,-0.27215 z m -5.54222,0.11339 c 0.0937,-0.002 0.19003,0.0277 0.27498,0.0992 0.0623,0.0524 0.13037,0.15664 0.15309,0.23246 0.0546,0.18211 -0.0263,0.38154 -0.19561,0.48477 -0.0674,0.0411 -0.17139,0.0737 -0.23246,0.0737 -0.16157,0 -0.34825,-0.12635 -0.4139,-0.28349 -0.12855,-0.30766 0.13268,-0.60036 0.4139,-0.60666 z m 2.63361,0.0765 c 0.17993,0 0.20964,0.014 0.34303,0.14742 0.16725,0.16725 0.21755,0.33763 0.15308,0.53296 -0.0431,0.13054 -0.26163,0.35626 -0.34586,0.35719 -0.0247,2.8e-4 -0.0784,0.006 -0.11906,0.0142 -0.20785,0.0422 -0.51642,-0.18124 -0.55847,-0.40539 -0.0417,-0.22201 0.0112,-0.36984 0.17859,-0.51312 0.13399,-0.11469 0.17665,-0.13324 0.34869,-0.13324 z m -3.331,1.36926 c 0.14106,0 0.1888,0.0215 0.29483,0.12757 0.0692,0.0692 0.12533,0.16477 0.12757,0.21261 0.0122,0.25943 -0.0555,0.40605 -0.22963,0.49611 -0.25031,0.12945 -0.53602,0.008 -0.62651,-0.26648 -0.0913,-0.2766 0.13121,-0.56981 0.43374,-0.56981 z m 4.99793,0.25514 c 0.0854,-0.006 0.16803,0.007 0.24379,0.0454 0.2922,0.14982 0.43245,0.43519 0.36003,0.73707 -0.0475,0.19795 -0.14076,0.30104 -0.34302,0.38555 -0.46016,0.19227 -0.94098,-0.19573 -0.83913,-0.67754 0.0571,-0.2701 0.32212,-0.47174 0.57833,-0.49044 z m -2.62229,0.0454 c 0.12455,-0.002 0.25284,0.0435 0.36004,0.14741 0.2296,0.22254 0.24134,0.52326 0.0284,0.74558 -0.0552,0.0576 -0.16005,0.11879 -0.23247,0.13891 -0.18018,0.05 -0.22212,0.0491 -0.36853,-0.0255 -0.17691,-0.0902 -0.27113,-0.23316 -0.28916,-0.44224 -0.0284,-0.32887 0.22776,-0.56014 0.50177,-0.56415 z m 4.63506,1.0319 c 0.33137,-0.0146 0.66731,0.21336 0.72289,0.58399 0.0471,0.31406 -0.10598,0.61857 -0.3742,0.74841 -0.35907,0.17383 -0.77046,0.0423 -0.94686,-0.30333 -0.13779,-0.26999 -0.0653,-0.6226 0.17576,-0.85047 0.12286,-0.11615 0.27179,-0.17198 0.42241,-0.1786 z m -7.61454,0.15025 c 0.076,6.5e-4 0.15711,0.0232 0.23531,0.0709 0.14818,0.0904 0.20694,0.19987 0.20694,0.38271 0,0.1803 -0.071,0.31532 -0.20127,0.38271 -0.0557,0.0288 -0.17066,0.051 -0.25514,0.051 -0.12534,0 -0.17797,-0.022 -0.28066,-0.12473 -0.10269,-0.10269 -0.12474,-0.15532 -0.12474,-0.28066 0,-0.2903 0.19145,-0.48391 0.41956,-0.48193 z m 2.26509,0.59249 c 0.1862,0.002 0.3709,0.10529 0.46209,0.30617 0.0906,0.19949 0.0908,0.26304 -0.003,0.45642 -0.0554,0.11437 -0.12093,0.1771 -0.23529,0.23246 -0.19974,0.0967 -0.26459,0.0971 -0.46493,-0.006 -0.27224,-0.1396 -0.3676,-0.42554 -0.23246,-0.69454 0.1,-0.19899 0.28724,-0.29668 0.47343,-0.29483 z m 2.38131,0.18427 c 0.23352,0 0.37358,0.0674 0.51028,0.24664 0.0881,0.11549 0.10489,0.17166 0.10489,0.36854 0,0.20662 -0.0115,0.24337 -0.11056,0.34868 -0.0611,0.065 -0.17937,0.1494 -0.26081,0.18711 -0.16659,0.0771 -0.24486,0.0828 -0.40539,0.0255 -0.2689,-0.0959 -0.42487,-0.30157 -0.42523,-0.55847 -4.6e-4,-0.37082 0.23323,-0.61801 0.58682,-0.61801 z m -5.06596,0.77676 c 0.12533,0 0.17797,0.022 0.28065,0.12474 0.10271,0.10269 0.12475,0.15532 0.12475,0.28065 0,0.19577 -0.0828,0.35657 -0.22113,0.42807 -0.38789,0.20059 -0.79648,-0.19561 -0.6095,-0.58966 0.0774,-0.16314 0.21724,-0.2438 0.42523,-0.2438 z m 9.63298,0.25231 c 0.26865,-0.002 0.39539,0.0505 0.57265,0.23529 0.22659,0.23624 0.29943,0.60088 0.17292,0.86748 -0.0786,0.16556 -0.30964,0.36257 -0.49043,0.41674 -0.3585,0.10741 -0.73124,-0.0368 -0.91567,-0.35154 -0.084,-0.14334 -0.0947,-0.19616 -0.0822,-0.41672 0.0168,-0.29745 0.12788,-0.50124 0.36003,-0.65487 0.1168,-0.0773 0.19049,-0.0952 0.38271,-0.0964 z m -2.63645,0.41957 c 0.39671,-7e-4 0.70083,0.28188 0.70873,0.67469 0.006,0.29564 -0.12714,0.52454 -0.37705,0.65203 -0.29915,0.15262 -0.70983,0.0645 -0.893,-0.19277 -0.11989,-0.16837 -0.14183,-0.58273 -0.0397,-0.76826 0.11283,-0.20492 0.30838,-0.34264 0.51879,-0.36286 0.0272,-0.003 0.0558,-0.003 0.0822,-0.003 z m -4.86469,0.21828 c 0.099,-0.003 0.19895,0.016 0.27215,0.0539 0.14272,0.0738 0.26932,0.2913 0.26932,0.45925 0,0.16749 -0.0908,0.35394 -0.21262,0.43375 -0.27496,0.18016 -0.6382,0.0976 -0.77959,-0.17576 -0.1173,-0.22686 -0.0263,-0.57464 0.18427,-0.70306 0.0686,-0.0419 0.16745,-0.0653 0.26647,-0.068 z m 2.2991,0.44224 c 0.33663,2.6e-4 0.6172,0.27643 0.61234,0.59817 -0.003,0.21227 -0.13391,0.442 -0.29766,0.52445 -0.27115,0.13653 -0.57125,0.087 -0.76259,-0.12474 -0.36332,-0.40213 -0.0958,-0.99824 0.44791,-0.99788 z m -4.7938,0.24664 c 0.20131,0 0.33383,0.0855 0.41673,0.26932 0.0768,0.17021 0.0374,0.34564 -0.10773,0.48192 -0.10686,0.10039 -0.29944,0.14633 -0.44224,0.10773 -0.47822,-0.12928 -0.36503,-0.85897 0.13324,-0.85897 z m 2.17436,1.19633 c 0.5468,0 0.74259,0.64635 0.29483,0.96953 -0.23419,0.16903 -0.60034,0.0727 -0.74275,-0.19278 -0.18583,-0.34652 0.0628,-0.77675 0.44792,-0.77675 z m 7.05321,0.21828 c 0.0977,0.004 0.19553,0.0286 0.29484,0.0737 0.15928,0.0724 0.37185,0.28873 0.42806,0.43657 0.0519,0.1365 0.0424,0.48486 -0.017,0.59817 -0.0762,0.14553 -0.27839,0.32807 -0.43657,0.39404 -0.0757,0.0316 -0.22704,0.0567 -0.33736,0.0567 -0.38912,0 -0.72856,-0.3485 -0.72856,-0.7484 0,-0.48638 0.37322,-0.8286 0.79661,-0.81079 z m -9.41467,0.1701 c 0.0412,4.7e-4 0.0819,0.007 0.1219,0.0198 0.40544,0.13381 0.42764,0.67183 0.034,0.83629 -0.14844,0.0621 -0.18659,0.0628 -0.32885,0 -0.19127,-0.0844 -0.25798,-0.19159 -0.25798,-0.41106 0,-0.15664 0.0172,-0.21679 0.0879,-0.29199 0.0955,-0.10164 0.21951,-0.15458 0.34303,-0.15309 z m 7.01069,0.0567 c 0.76631,0 0.99127,1.02172 0.29484,1.33807 -0.58396,0.26526 -1.17402,-0.32338 -0.92418,-0.92134 0.11948,-0.28597 0.31557,-0.41673 0.62934,-0.41673 z m -2.3643,0.29766 c 0.10648,0.002 0.21685,0.0225 0.29482,0.0595 0.42929,0.20371 0.436,0.84108 0.0113,1.05174 -0.29053,0.14413 -0.55725,0.0989 -0.7711,-0.13324 -0.12102,-0.13137 -0.12393,-0.14346 -0.11056,-0.40822 0.0148,-0.29284 0.0804,-0.40572 0.29767,-0.51879 0.0671,-0.0349 0.17133,-0.0526 0.27781,-0.051 z m 6.91714,0.87315 c 0.266,-0.002 0.55669,0.11471 0.7399,0.31751 0.16467,0.18227 0.20129,0.27919 0.20129,0.52729 0,0.25039 -0.16016,0.50548 -0.41673,0.66337 -0.1425,0.0877 -0.22844,0.11075 -0.44508,0.1219 -0.308,0.0158 -0.42831,-0.0258 -0.61517,-0.21261 -0.41203,-0.41204 -0.31311,-1.07108 0.20127,-1.34092 0.0986,-0.0517 0.21361,-0.0758 0.33452,-0.0765 z m -9.30129,0.3005 c 0.54967,-0.008 0.74785,0.68579 0.27782,0.97237 -0.25503,0.1555 -0.58829,0.0538 -0.73991,-0.22396 -0.17655,-0.3235 0.083,-0.74267 0.46209,-0.74841 z m -2.30477,0.0822 c 0.12534,0 0.17797,0.0249 0.28066,0.12757 0.10269,0.10269 0.12473,0.15249 0.12473,0.27782 0,0.19576 -0.0828,0.35656 -0.22111,0.42806 -0.2178,0.11264 -0.43725,0.052 -0.58116,-0.16159 -0.1,-0.14832 -0.10778,-0.26321 -0.0256,-0.43657 0.0736,-0.15505 0.21754,-0.23529 0.42241,-0.23529 z m 4.70876,0.93835 c 0.36399,0.0155 0.69369,0.36008 0.58682,0.75691 -0.046,0.17069 -0.23935,0.36749 -0.41106,0.41674 -0.43586,0.125 -0.77676,-0.12153 -0.77676,-0.56415 0,-0.25307 0.0623,-0.38218 0.24097,-0.50461 0.11414,-0.0782 0.2387,-0.11005 0.36003,-0.10489 z m 2.22823,0.10206 c 0.0376,-4.7e-4 0.084,0.002 0.14174,0.006 0.27401,0.0151 0.37021,0.065 0.55848,0.29767 0.22603,0.27926 0.15118,0.7111 -0.17009,0.9667 -0.1831,0.14565 -0.5277,0.1748 -0.73424,0.0624 -0.45186,-0.24598 -0.48744,-0.91727 -0.0652,-1.22467 0.11183,-0.0814 0.1567,-0.10592 0.26932,-0.10773 z m 2.48054,0.051 c 0.16885,4.6e-4 0.343,0.0579 0.50177,0.17292 0.49783,0.36063 0.34484,1.18099 -0.25514,1.36075 -0.81277,0.24351 -1.37364,-0.82253 -0.71723,-1.36358 0.1386,-0.11425 0.30173,-0.17053 0.4706,-0.17009 z m -9.48557,0.50744 c 0.0328,-0.005 0.0726,9.3e-4 0.12758,0.009 0.19575,0.0268 0.28119,0.0763 0.36002,0.20978 0.12144,0.20557 0.0451,0.50123 -0.15875,0.60667 -0.48453,0.25056 -0.90019,-0.34403 -0.49894,-0.71439 0.0766,-0.0708 0.1155,-0.10274 0.17009,-0.11056 z m 2.49471,0.23245 c 0.071,0.003 0.14503,0.0215 0.21829,0.0539 0.14091,0.0623 0.1838,0.10745 0.24663,0.24948 0.12599,0.2848 0.0285,0.56666 -0.24096,0.69454 -0.16559,0.0786 -0.31034,0.0759 -0.46776,-0.009 -0.17477,-0.0937 -0.2643,-0.227 -0.28633,-0.42241 -0.0376,-0.33357 0.22243,-0.57933 0.53013,-0.56697 z m 2.55707,1.28989 c 0.16391,-0.0126 0.33914,0.0428 0.49045,0.19277 0.11005,0.10909 0.13091,0.15415 0.14457,0.34302 0.0188,0.26028 -0.0414,0.40208 -0.23529,0.54997 -0.26927,0.20537 -0.67037,0.14304 -0.85898,-0.13324 -0.30581,-0.44796 0.0404,-0.92029 0.45925,-0.95252 z m -4.76545,0.0737 c 0.17846,-0.006 0.35472,0.0982 0.42523,0.30333 0.0633,0.18424 0.024,0.33866 -0.12473,0.47342 -0.21113,0.19134 -0.60952,0.10142 -0.70023,-0.15875 -0.0593,-0.17007 -0.0531,-0.25875 0.0312,-0.39689 0.0882,-0.14467 0.22974,-0.21629 0.36855,-0.22111 z m -2.38132,0.10205 c 0.0941,-0.009 0.19423,0.0241 0.27783,0.10773 0.1624,0.16239 0.13302,0.45851 -0.0539,0.54996 -0.23075,0.11292 -0.45492,0.0357 -0.5273,-0.18143 -0.0828,-0.24835 0.0963,-0.45725 0.30333,-0.47626 z m 4.87886,0.41956 c 0.15926,-0.009 0.31893,0.0653 0.44224,0.21829 0.20368,0.25277 0.14088,0.55299 -0.15875,0.75692 -0.3528,0.24011 -0.77959,-0.0419 -0.77959,-0.51595 0,-0.12435 0.0252,-0.1726 0.14174,-0.28917 0.10701,-0.10701 0.23049,-0.16325 0.35436,-0.17009 z m -4.64639,0.85331 c 0.0423,-4.6e-4 0.0883,0.005 0.13324,0.0198 0.0724,0.0239 0.1565,0.0811 0.1871,0.12474 0.0838,0.11969 0.0697,0.33784 -0.0284,0.45076 -0.10357,0.11919 -0.30259,0.15202 -0.44224,0.0737 -0.12599,-0.0707 -0.17861,-0.16425 -0.17861,-0.32318 0,-0.2022 0.14565,-0.34249 0.32886,-0.34586 z m 2.52022,0.20695 c 0.43366,0 0.5672,0.64069 0.17292,0.82778 -0.0701,0.0333 -0.16479,0.0596 -0.21261,0.0595 -0.19745,-2.3e-4 -0.4394,-0.24293 -0.4394,-0.44223 0,-0.25594 0.20363,-0.44508 0.47909,-0.44508 z m 5.04045,0.45925 c 0.25069,-0.0104 0.51816,0.12047 0.61233,0.34586 0.11846,0.28349 -0.0204,0.64821 -0.29767,0.78243 -0.21033,0.10182 -0.423,0.1009 -0.58114,-0.006 -0.19464,-0.13116 -0.292,-0.30503 -0.292,-0.51596 0,-0.22343 0.0694,-0.36379 0.24664,-0.49893 0.0894,-0.0682 0.19788,-0.10302 0.31184,-0.10773 z m -2.3558,0.32601 c 0.37348,-9.3e-4 0.64296,0.38062 0.46492,0.74841 -0.0435,0.0899 -0.12036,0.18853 -0.1701,0.22113 -0.12899,0.0845 -0.38217,0.10723 -0.51878,0.0453 -0.43128,-0.19534 -0.39387,-0.85439 0.0567,-0.98938 0.0565,-0.0169 0.11391,-0.0253 0.16727,-0.0255 z m -4.88453,0.26932 c 0.14363,0 0.18663,0.0186 0.26081,0.10488 0.11849,0.13778 0.12084,0.35389 0.006,0.48478 -0.0458,0.052 -0.13169,0.10324 -0.19277,0.11339 -0.33472,0.0556 -0.55883,-0.34069 -0.33735,-0.59817 0.0742,-0.0862 0.12,-0.10488 0.26365,-0.10488 z m 2.61094,0.47626 c 0.208,2.3e-4 0.41812,0.13985 0.46209,0.37421 0.0275,0.1464 -0.0609,0.35857 -0.18427,0.4394 -0.1101,0.0721 -0.31428,0.10304 -0.41106,0.0624 -0.0424,-0.0178 -0.12144,-0.0829 -0.17577,-0.14742 -0.12654,-0.15039 -0.13947,-0.4221 -0.0255,-0.56697 0.0867,-0.1102 0.20972,-0.16178 0.33452,-0.16159 z m -2.24808,0.74841 c 0.0728,-0.003 0.15194,0.0162 0.22681,0.0652 0.20288,0.13294 0.20852,0.39494 0.0141,0.55848 -0.20328,0.17103 -0.46616,0.10363 -0.54714,-0.14175 -0.0847,-0.25655 0.0879,-0.47262 0.30616,-0.48193 z m 2.87459,0.75408 c 0.12727,0 0.18036,0.0244 0.28349,0.12757 0.10872,0.10872 0.12473,0.15019 0.12473,0.30617 0,0.20389 -0.0652,0.31763 -0.22395,0.39972 -0.28873,0.14931 -0.63205,-0.0592 -0.64068,-0.38838 -0.007,-0.26976 0.17156,-0.44508 0.45641,-0.44508 z"
       id="path11871-9"
       style="fill:#ffffff;fill-opacity:1" />
  </g>
</svg>
